<mxfile host="www.draw.io" modified="2019-11-26T12:59:50.296Z" agent="Mozilla/5.0 (Windows NT 10.0; Win64; x64) AppleWebKit/537.36 (KHTML, like Gecko) Chrome/78.0.3904.97 Safari/537.36" etag="45ASKLWeOTEEybDWoOi1" version="12.3.1" type="github" pages="1">
  <diagram id="Be-Ax_pg3TJEci35lFW-" name="Page-1">
    <mxGraphModel dx="2591" dy="1549" grid="1" gridSize="10" guides="1" tooltips="1" connect="1" arrows="1" fold="1" page="1" pageScale="1" pageWidth="1169" pageHeight="826" math="0" shadow="0">
      <root>
        <mxCell id="0"/>
        <mxCell id="1" parent="0"/>
        <mxCell id="ZcpP1VhZbiK2ygFInKhz-1" value="html-scraper" style="rounded=1;whiteSpace=wrap;html=1;absoluteArcSize=1;arcSize=14;strokeWidth=2;" vertex="1" parent="1">
          <mxGeometry x="305" y="310" width="130" height="70" as="geometry"/>
        </mxCell>
        <mxCell id="ZcpP1VhZbiK2ygFInKhz-2" value="URL" style="edgeStyle=orthogonalEdgeStyle;rounded=0;orthogonalLoop=1;jettySize=auto;html=1;entryX=0;entryY=0.5;entryDx=0;entryDy=0;" edge="1" parent="1" source="ZcpP1VhZbiK2ygFInKhz-6" target="ZcpP1VhZbiK2ygFInKhz-9">
          <mxGeometry relative="1" as="geometry">
            <mxPoint x="210" y="195" as="targetPoint"/>
          </mxGeometry>
        </mxCell>
        <mxCell id="ZcpP1VhZbiK2ygFInKhz-3" value="" style="rounded=0;orthogonalLoop=1;jettySize=auto;html=1;" edge="1" parent="1" source="ZcpP1VhZbiK2ygFInKhz-6" target="ZcpP1VhZbiK2ygFInKhz-10">
          <mxGeometry relative="1" as="geometry">
            <mxPoint x="65" y="290" as="targetPoint"/>
          </mxGeometry>
        </mxCell>
        <mxCell id="ZcpP1VhZbiK2ygFInKhz-4" style="rounded=0;orthogonalLoop=1;jettySize=auto;html=1;entryX=0;entryY=0.5;entryDx=0;entryDy=0;exitX=1;exitY=0.75;exitDx=0;exitDy=0;startArrow=classic;startFill=1;" edge="1" parent="1" source="ZcpP1VhZbiK2ygFInKhz-6" target="ZcpP1VhZbiK2ygFInKhz-1">
          <mxGeometry relative="1" as="geometry">
            <mxPoint x="80" y="250" as="targetPoint"/>
          </mxGeometry>
        </mxCell>
        <mxCell id="ZcpP1VhZbiK2ygFInKhz-5" value="Index" style="text;html=1;align=center;verticalAlign=middle;resizable=0;points=[];;labelBackgroundColor=#ffffff;" vertex="1" connectable="0" parent="ZcpP1VhZbiK2ygFInKhz-4">
          <mxGeometry x="0.1929" y="-1" relative="1" as="geometry">
            <mxPoint x="1" as="offset"/>
          </mxGeometry>
        </mxCell>
        <mxCell id="ZcpP1VhZbiK2ygFInKhz-6" value="game-poller" style="rounded=1;whiteSpace=wrap;html=1;absoluteArcSize=1;arcSize=14;strokeWidth=2;" vertex="1" parent="1">
          <mxGeometry y="150" width="130" height="70" as="geometry"/>
        </mxCell>
        <mxCell id="ZcpP1VhZbiK2ygFInKhz-7" value="Game&lt;br&gt;Attribute" style="edgeStyle=none;rounded=0;orthogonalLoop=1;jettySize=auto;html=1;entryX=0.5;entryY=0;entryDx=0;entryDy=0;startArrow=classic;startFill=1;" edge="1" parent="1" source="ZcpP1VhZbiK2ygFInKhz-9" target="ZcpP1VhZbiK2ygFInKhz-1">
          <mxGeometry relative="1" as="geometry"/>
        </mxCell>
        <mxCell id="ZcpP1VhZbiK2ygFInKhz-8" style="edgeStyle=none;rounded=0;orthogonalLoop=1;jettySize=auto;html=1;entryX=0.5;entryY=1;entryDx=0;entryDy=0;entryPerimeter=0;startArrow=classic;startFill=1;" edge="1" parent="1" source="ZcpP1VhZbiK2ygFInKhz-9" target="ZcpP1VhZbiK2ygFInKhz-10">
          <mxGeometry relative="1" as="geometry"/>
        </mxCell>
        <mxCell id="ZcpP1VhZbiK2ygFInKhz-9" value="game-processor" style="rounded=1;whiteSpace=wrap;html=1;absoluteArcSize=1;arcSize=14;strokeWidth=2;" vertex="1" parent="1">
          <mxGeometry x="290" y="150" width="160" height="70" as="geometry"/>
        </mxCell>
        <mxCell id="ZcpP1VhZbiK2ygFInKhz-10" value="Data" style="strokeWidth=2;html=1;shape=mxgraph.flowchart.stored_data;whiteSpace=wrap;" vertex="1" parent="1">
          <mxGeometry x="320" y="10" width="100" height="60" as="geometry"/>
        </mxCell>
        <mxCell id="ZcpP1VhZbiK2ygFInKhz-11" value="" style="edgeStyle=orthogonalEdgeStyle;rounded=0;orthogonalLoop=1;jettySize=auto;html=1;" edge="1" parent="1" source="ZcpP1VhZbiK2ygFInKhz-12" target="ZcpP1VhZbiK2ygFInKhz-6">
          <mxGeometry relative="1" as="geometry"/>
        </mxCell>
        <mxCell id="ZcpP1VhZbiK2ygFInKhz-12" value="Scheduler" style="strokeWidth=2;html=1;shape=mxgraph.flowchart.start_1;whiteSpace=wrap;" vertex="1" parent="1">
          <mxGeometry x="15" width="100" height="60" as="geometry"/>
        </mxCell>
      </root>
    </mxGraphModel>
  </diagram>
</mxfile>
